<?xml version="1.0" standalone="no"?>
<!DOCTYPE svg PUBLIC "-//W3C//DTD SVG 20010904//EN"
 "http://www.w3.org/TR/2001/REC-SVG-20010904/DTD/svg10.dtd">
<svg version="1.0" xmlns="http://www.w3.org/2000/svg"
 width="1200.000000pt" height="1200.000000pt" viewBox="0 0 1200.000000 1200.000000"
 preserveAspectRatio="xMidYMid meet">

<g transform="translate(0.000000,1200.000000) scale(0.100000,-0.100000)"
fill="#000000" stroke="none">
<path d="M6847 11560 c-49 -39 -42 -116 14 -145 35 -19 53 -19 89 0 35 18 55
71 41 108 -21 55 -96 75 -144 37z"/>
<path d="M4803 11533 c-31 -6 -73 -59 -73 -93 0 -16 11 -42 26 -59 22 -26 33
-31 69 -31 62 0 100 33 100 89 0 64 -55 106 -122 94z"/>
<path d="M7099 11525 c-54 -29 -60 -107 -12 -145 51 -40 132 -14 147 46 10 37
-11 82 -45 99 -35 18 -56 18 -90 0z"/>
<path d="M5910 11413 c-19 -1 -63 -5 -96 -9 l-62 -5 -128 -171 -129 -171 -6
54 c-4 30 -10 103 -14 162 l-7 108 -91 -7 c-51 -4 -93 -7 -93 -8 -1 0 11 -170
27 -376 16 -206 28 -383 29 -392 0 -20 25 -22 126 -12 l59 6 -12 167 c-7 91
-12 172 -11 180 2 8 75 -63 163 -157 156 -168 160 -171 195 -167 19 2 75 7
124 11 l89 6 -198 198 -198 198 143 179 c79 98 150 186 158 196 17 19 17 19
-68 10z"/>
<path d="M6657 11348 c-26 -108 -90 -486 -90 -534 1 -167 137 -292 329 -302
147 -8 260 51 312 164 27 58 125 566 111 575 -13 8 -169 32 -174 27 -3 -2 -25
-114 -50 -248 -48 -257 -64 -304 -115 -333 -61 -37 -174 -7 -205 53 -23 45
-18 117 28 362 l43 227 -45 10 c-25 5 -67 12 -92 16 -43 6 -47 5 -52 -17z"/>
<path d="M4845 11282 c-38 -8 -71 -16 -73 -17 -3 -3 158 -767 163 -773 1 -1
44 7 94 19 82 19 92 24 88 40 -3 11 -40 184 -83 384 -72 338 -79 365 -98 364
-12 -1 -52 -8 -91 -17z"/>
<path d="M4355 11156 c-44 -16 -82 -31 -83 -32 -2 -1 37 -109 87 -240 51 -130
90 -238 89 -239 -2 -2 -110 80 -240 182 l-238 184 -101 -37 c-77 -29 -99 -41
-96 -53 10 -34 266 -713 271 -718 8 -8 157 49 162 61 2 6 -36 115 -85 241 -49
127 -87 232 -86 233 2 2 110 -79 241 -180 130 -100 242 -182 248 -180 54 14
186 69 186 78 0 12 -257 702 -268 720 -5 7 -34 0 -87 -20z"/>
<path d="M7530 10821 c-74 -185 -139 -350 -146 -367 l-13 -32 77 -31 c42 -17
82 -31 87 -31 6 0 51 106 100 235 50 129 92 235 95 235 3 0 25 -114 49 -252
23 -139 47 -273 52 -298 l10 -45 96 -38 c52 -21 99 -35 103 -30 9 11 282 694
284 711 0 8 -34 27 -81 47 l-82 33 -57 -146 c-85 -220 -133 -338 -134 -332 -1
3 -25 138 -53 300 l-52 295 -101 41 -102 42 -132 -337z"/>
<path d="M8719 10881 c-46 -47 -35 -114 26 -146 103 -56 191 69 105 148 -42
38 -92 37 -131 -2z"/>
<path d="M3410 10752 l-95 -58 -36 -207 c-20 -114 -38 -209 -40 -212 -3 -2
-40 54 -83 126 -43 71 -82 131 -86 134 -8 5 -160 -86 -156 -94 15 -25 408
-666 410 -668 1 -2 139 81 155 93 2 2 -40 73 -93 160 -53 86 -90 154 -84 152
7 -3 107 -38 222 -78 l210 -74 50 28 c28 16 76 45 106 64 l55 35 -257 86
c-141 47 -260 89 -263 93 -4 4 14 108 40 233 25 124 45 230 43 236 -2 5 -46
-17 -98 -49z"/>
<path d="M8432 10392 c-105 -181 -192 -334 -194 -341 -3 -12 149 -108 157 -99
9 9 386 662 388 672 2 8 -139 96 -154 96 -4 0 -93 -148 -197 -328z"/>
<path d="M8986 10493 c-3 -10 -57 -188 -121 -396 -64 -208 -115 -382 -113
-387 2 -4 35 -33 74 -63 l70 -55 340 205 c186 112 349 211 362 219 23 15 23
16 -58 79 l-82 64 -217 -146 c-119 -81 -227 -155 -240 -165 -13 -10 -27 -18
-31 -18 -4 0 34 116 85 258 51 141 95 267 99 279 6 18 -5 31 -71 82 -43 34
-81 61 -85 61 -4 0 -9 -8 -12 -17z"/>
<path d="M2451 10077 c-107 -95 -194 -176 -194 -180 2 -20 508 -587 520 -583
14 6 403 345 403 353 0 2 -23 31 -51 63 l-51 59 -122 -106 c-66 -59 -129 -113
-139 -122 -16 -13 -22 -10 -67 40 -27 30 -49 59 -50 65 0 7 53 59 119 115 132
115 127 102 58 178 l-38 42 -100 -88 c-56 -48 -112 -96 -125 -106 l-24 -19
-45 49 c-24 26 -44 53 -45 59 0 6 56 60 125 120 69 59 125 110 125 113 0 4
-24 32 -53 63 l-52 57 -194 -172z"/>
<path d="M5670 10139 c-531 -43 -1047 -187 -1519 -424 -133 -66 -358 -195
-444 -253 l-29 -20 149 -110 c735 -546 1458 -1080 1460 -1078 2 2 477 1576
558 1849 l14 47 -42 -1 c-23 -1 -89 -6 -147 -10z"/>
<path d="M6439 9210 c157 -517 289 -939 293 -938 7 3 1564 1143 1582 1160 13
10 2 18 -179 127 -560 336 -1172 531 -1824 581 -74 5 -140 10 -146 10 -7 0
110 -401 274 -940z"/>
<path d="M5992 9839 c-6 -19 -122 -403 -257 -854 -135 -451 -250 -832 -254
-846 -9 -25 1 -34 250 -218 162 -120 264 -189 272 -185 60 37 527 388 527 397
0 7 -119 401 -264 876 -246 807 -264 862 -274 830z"/>
<path d="M9505 9589 c-154 -143 -281 -264 -283 -268 -3 -8 357 -401 367 -401
3 0 32 23 64 51 l57 51 -127 136 -126 136 58 53 c32 29 61 53 65 53 3 0 53
-51 111 -114 57 -63 108 -115 112 -115 5 -1 32 21 60 48 l51 49 -89 96 c-50
54 -99 108 -110 122 l-19 24 52 53 53 52 37 -40 c20 -22 74 -80 119 -129 l82
-90 55 50 c30 27 53 54 53 61 -2 15 -337 377 -351 380 -6 1 -137 -115 -291
-258z"/>
<path d="M1853 9467 l-203 -242 28 -23 c15 -13 43 -36 63 -52 l36 -29 54 65
c30 36 61 75 70 87 17 20 21 18 259 -182 133 -112 245 -199 249 -195 4 5 31
37 61 72 45 54 51 65 39 77 -8 7 -116 98 -241 203 l-226 189 69 84 c38 46 68
87 67 91 -3 9 -111 98 -118 98 -3 -1 -96 -110 -207 -243z"/>
<path d="M3339 9185 c-139 -115 -451 -432 -565 -575 -196 -246 -329 -451 -465
-715 -86 -166 -209 -448 -209 -477 0 -13 81 -16 588 -21 323 -4 766 -10 984
-14 l398 -6 -281 834 c-155 459 -298 883 -318 943 l-37 109 -95 -78z"/>
<path d="M8268 8323 c-169 -510 -305 -929 -303 -931 6 -6 1927 17 1933 23 9 8
-90 244 -169 405 -217 441 -475 797 -825 1140 -128 126 -313 291 -325 290 -2
0 -142 -418 -311 -927z"/>
<path d="M7585 8639 c-423 -318 -774 -584 -779 -592 -6 -9 24 -124 90 -342
l99 -328 374 6 c205 3 376 9 379 12 7 7 613 1817 610 1820 -2 1 -349 -258
-773 -576z"/>
<path d="M10040 8998 c-173 -114 -321 -212 -329 -217 -11 -6 -2 -25 38 -84
l51 -77 58 37 c31 20 90 59 131 86 76 51 75 51 101 6 6 -11 -14 -58 -75 -173
l-85 -157 62 -92 62 -92 30 65 c17 36 55 115 84 177 l53 112 48 -25 c97 -51
207 -26 280 62 59 72 61 166 7 275 -21 41 -178 284 -195 300 -3 4 -148 -88
-321 -203z m338 -95 c41 -65 51 -107 36 -148 -8 -19 -55 -45 -84 -45 -26 0
-98 67 -128 119 l-22 40 72 50 c40 27 75 50 78 50 3 1 24 -29 48 -66z"/>
<path d="M3720 9123 c1 -14 569 -1735 575 -1742 4 -3 169 -6 368 -6 l361 0 98
325 c76 254 95 327 85 336 -12 12 -1457 1076 -1477 1089 -5 3 -10 3 -10 -2z"/>
<path d="M1170 8430 c-74 -148 -132 -271 -130 -273 7 -7 129 -67 135 -67 3 0
42 73 86 163 l82 162 14 -30 c8 -16 62 -138 122 -270 l107 -240 70 -37 c38
-21 72 -38 76 -38 8 0 278 533 278 548 0 7 -122 72 -135 72 -3 0 -43 -77 -91
-171 -47 -95 -89 -168 -94 -163 -4 5 -62 130 -128 278 l-120 270 -63 32 c-35
18 -66 33 -69 34 -3 0 -66 -121 -140 -270z"/>
<path d="M10660 8371 c-80 -26 -142 -84 -160 -151 -7 -25 -8 -86 -4 -167 6
-116 5 -130 -12 -150 -11 -13 -33 -26 -49 -29 -37 -7 -81 24 -101 72 -16 38
-18 131 -5 167 9 24 7 26 -57 50 -37 14 -74 28 -83 32 -13 5 -19 -4 -28 -39
-42 -166 45 -373 184 -442 46 -22 65 -26 114 -22 84 6 148 42 186 103 l30 49
-3 153 c-2 142 -1 154 18 173 42 42 106 15 136 -56 16 -39 18 -107 4 -134 -11
-20 -13 -19 92 -55 l67 -24 7 35 c13 68 -1 186 -28 246 -31 68 -98 142 -151
169 -44 23 -120 32 -157 20z"/>
<path d="M5295 7525 l-109 -365 -408 0 c-235 0 -408 -4 -408 -9 0 -5 51 -164
113 -354 l114 -345 -294 -212 c-161 -117 -295 -215 -298 -220 -2 -4 148 -114
334 -245 l339 -238 -60 -171 c-33 -94 -89 -254 -124 -355 l-64 -183 207 6
c115 3 296 9 403 12 l195 6 99 -346 c55 -190 104 -346 109 -346 5 0 139 99
298 220 159 121 292 220 295 220 3 0 130 -95 281 -211 151 -116 280 -212 287
-215 7 -3 49 123 120 368 60 205 112 377 116 381 5 5 165 0 356 -11 192 -11
350 -19 351 -18 1 1 -51 165 -116 364 l-118 361 326 212 c179 116 332 217 339
223 9 9 -48 56 -262 215 l-274 203 114 341 c63 188 114 343 114 345 0 2 -189
1 -419 -3 l-419 -8 -15 49 c-108 363 -212 694 -219 694 -6 0 -457 -333 -584
-431 -7 -6 -123 74 -309 211 -164 121 -299 220 -299 220 -1 0 -50 -164 -111
-365z"/>
<path d="M925 7862 c-28 -69 -54 -157 -48 -163 7 -7 720 -259 733 -259 9 0 65
169 58 176 -4 3 -141 53 -305 110 -164 58 -328 116 -365 129 -61 22 -67 23
-73 7z"/>
<path d="M11263 7686 c-23 -20 -28 -32 -28 -69 0 -74 56 -118 121 -97 43 15
64 45 64 93 0 83 -94 127 -157 73z"/>
<path d="M10772 7545 c-206 -62 -375 -115 -378 -117 -3 -4 44 -169 51 -176 3
-3 746 217 753 223 2 2 -9 44 -25 93 l-28 90 -373 -113z"/>
<path d="M969 7336 c-107 -28 -183 -98 -238 -217 -28 -60 -106 -398 -98 -422
2 -8 730 -156 767 -157 10 0 70 343 70 397 0 111 -39 218 -105 291 -85 95
-264 144 -396 108z m216 -213 c79 -41 115 -104 115 -201 0 -50 -15 -160 -23
-168 -3 -3 -448 84 -452 88 -7 7 26 143 44 182 20 44 58 84 106 110 41 23 156
17 210 -11z"/>
<path d="M11220 7229 c-25 -5 -59 -11 -76 -14 l-31 -5 18 -107 c10 -59 16
-109 14 -111 -3 -3 -140 -28 -305 -57 -165 -28 -302 -54 -305 -56 -2 -3 3 -44
12 -92 11 -63 20 -87 30 -87 9 0 146 23 306 50 160 28 294 47 297 43 4 -5 14
-53 24 -108 9 -54 18 -100 19 -101 3 -3 147 23 152 27 4 5 -100 618 -106 623
-2 1 -24 -1 -49 -5z"/>
<path d="M8905 7178 c-374 -4 -757 -11 -852 -14 l-172 -6 -96 -295 c-53 -162
-95 -298 -93 -303 2 -4 114 -90 250 -190 l247 -181 748 486 c411 268 755 493
763 501 12 12 5 14 -50 12 -36 -1 -371 -5 -745 -10z"/>
<path d="M2371 7157 c20 -18 1425 -1000 1434 -1004 16 -5 545 374 544 390 0 7
-46 147 -103 312 l-103 300 -888 3 c-489 1 -887 1 -884 -1z"/>
<path d="M1981 7040 c-95 -352 -137 -728 -128 -1140 6 -256 19 -392 57 -615
20 -119 86 -399 98 -422 5 -7 49 19 127 76 66 48 423 304 793 570 369 266 672
486 672 490 -1 5 -1540 1086 -1586 1113 -8 6 -18 -15 -33 -72z"/>
<path d="M9180 6591 c-443 -290 -803 -532 -800 -537 6 -12 1600 -1184 1610
-1184 10 0 74 268 100 415 38 221 51 358 57 615 6 275 -4 459 -38 690 -32 218
-101 530 -118 530 -3 0 -368 -238 -811 -529z"/>
<path d="M1230 6327 c0 -41 -3 -109 -7 -152 l-6 -77 -307 7 -307 7 -6 -47 c-4
-26 -7 -69 -7 -95 l0 -48 298 -6 c163 -4 340 -9 393 -12 l96 -6 6 69 c4 37 7
150 7 251 l0 182 -80 0 -80 0 0 -73z"/>
<path d="M10723 6333 l-113 -4 0 -153 c0 -84 3 -208 7 -274 l6 -122 80 0 80 0
-6 185 -7 185 85 0 84 0 3 -157 3 -158 77 -3 77 -3 -6 166 -6 165 75 0 75 0 7
-77 c3 -42 6 -120 6 -175 l0 -98 82 0 81 0 -6 158 c-4 86 -7 205 -7 265 l0
107 -282 -2 c-156 -1 -334 -4 -395 -5z"/>
<path d="M7865 5730 c-164 -109 -301 -203 -303 -209 -6 -18 219 -641 232 -641
6 0 443 -25 971 -54 528 -30 961 -53 962 -52 2 2 -1547 1151 -1555 1153 -4 0
-142 -88 -307 -197z"/>
<path d="M3038 5327 c-411 -297 -745 -543 -743 -545 4 -4 862 15 1634 36 l243
7 104 305 c57 168 104 310 104 316 0 9 -583 426 -592 423 -2 0 -339 -244 -750
-542z"/>
<path d="M980 5633 c-200 -18 -365 -35 -367 -37 -5 -5 10 -165 17 -175 5 -8
116 -1 389 24 210 19 385 35 387 35 6 0 5 58 -2 129 -7 58 -8 61 -33 60 -14
-1 -190 -17 -391 -36z"/>
<path d="M10681 5634 c-37 -27 -97 -128 -116 -198 -23 -84 -17 -204 12 -261
46 -87 123 -135 219 -135 103 0 163 49 234 191 65 129 101 153 156 105 24 -20
28 -31 27 -73 -1 -57 -13 -84 -55 -130 l-30 -31 52 -65 c60 -75 66 -75 119 3
79 116 94 285 34 391 -74 131 -259 160 -352 54 -16 -19 -51 -75 -76 -125 -67
-130 -112 -157 -172 -106 -24 21 -28 32 -27 73 1 55 28 115 73 157 l30 29 -30
41 c-70 96 -72 98 -98 80z"/>
<path d="M666 5079 c12 -56 26 -105 31 -109 6 -6 177 -62 298 -97 16 -5 -1
-25 -104 -122 l-123 -117 23 -104 c12 -58 24 -107 27 -110 2 -3 90 83 195 191
l192 196 158 34 c86 18 157 38 157 44 0 5 -9 46 -19 90 -15 67 -21 80 -37 79
-10 0 -84 -16 -164 -34 l-146 -33 -244 93 c-135 51 -250 95 -256 97 -7 3 -3
-33 12 -98z"/>
<path d="M10476 4873 c-18 -60 -45 -167 -43 -169 1 -1 121 -34 267 -74 146
-39 316 -85 378 -102 62 -17 114 -29 116 -27 11 15 46 173 39 179 -4 4 -172
51 -373 105 -201 53 -368 99 -372 101 -4 3 -9 -4 -12 -13z"/>
<path d="M11334 4634 c-34 -16 -54 -50 -54 -89 0 -108 146 -132 180 -30 28 84
-50 158 -126 119z"/>
<path d="M6925 4316 l-98 -315 28 -23 c171 -135 1329 -1017 1332 -1014 4 4
-537 1639 -545 1647 -4 4 -145 10 -313 14 l-305 7 -99 -316z"/>
<path d="M4461 4601 l-114 -6 -303 -860 c-167 -473 -303 -863 -301 -866 2 -6
1454 1094 1485 1125 13 12 5 48 -63 283 -43 147 -82 283 -87 301 l-9 32 -247
-2 c-136 -1 -298 -4 -361 -7z"/>
<path d="M7883 4598 c2 -7 152 -427 332 -933 180 -506 330 -923 334 -928 21
-22 482 414 638 603 271 330 484 681 647 1069 31 73 56 136 56 140 0 5 -93 11
-207 15 -156 5 -1746 46 -1797 46 -4 0 -6 -6 -3 -12z"/>
<path d="M3315 4584 c-357 -6 -769 -12 -915 -13 -146 -1 -271 -5 -279 -10 -20
-13 45 -171 174 -426 148 -293 312 -545 519 -795 110 -133 368 -392 511 -511
l130 -109 26 78 c489 1433 609 1787 609 1794 0 4 -28 7 -62 6 -35 -1 -355 -7
-713 -14z"/>
<path d="M5768 4124 c-142 -107 -258 -200 -258 -207 -1 -24 505 -1766 511
-1759 13 14 520 1762 514 1771 -8 14 -495 391 -503 391 -4 0 -123 -88 -264
-196z"/>
<path d="M5260 3740 c-19 -16 -377 -288 -795 -605 -418 -318 -761 -581 -763
-585 -5 -13 252 -165 438 -259 416 -209 847 -343 1305 -405 139 -19 405 -40
412 -32 8 8 -542 1910 -553 1912 -5 2 -25 -10 -44 -26z"/>
<path d="M6741 3728 c-135 -426 -581 -1872 -578 -1875 2 -2 67 1 143 7 548 42
1055 181 1537 422 148 74 401 218 448 257 20 16 3 31 -751 616 -425 330 -776
601 -780 603 -5 2 -13 -12 -19 -30z"/>
<path d="M7210 1459 c-41 -11 -80 -25 -86 -32 -6 -6 -53 -63 -105 -126 l-93
-114 39 -34 c22 -19 52 -43 66 -53 l26 -19 53 69 c29 39 55 70 59 70 3 0 35
-114 70 -253 36 -138 68 -266 73 -284 l8 -31 85 22 c47 13 88 25 91 28 8 9
-190 778 -201 777 -5 0 -44 -9 -85 -20z"/>
<path d="M4650 1393 c-74 -30 -138 -58 -143 -62 -7 -7 37 -127 52 -144 4 -4
44 8 89 27 47 20 82 30 82 24 0 -6 -32 -135 -71 -286 -38 -151 -69 -275 -67
-277 12 -9 174 -43 179 -37 7 8 187 714 191 751 3 22 -3 26 -67 42 -38 10 -79
18 -90 18 -11 -1 -81 -26 -155 -56z"/>
<path d="M6442 1339 c-61 -8 -67 -11 -149 -86 -46 -43 -101 -92 -121 -109
l-36 -31 42 -50 c71 -85 65 -85 137 -13 36 35 66 62 69 59 2 -2 18 -132 35
-288 17 -156 33 -286 35 -288 6 -6 162 8 174 16 9 5 -45 557 -73 759 -7 47 -2
46 -113 31z"/>
<path d="M5485 1331 c-86 -21 -160 -84 -196 -166 -27 -60 -30 -162 -7 -216 37
-86 123 -146 223 -158 l54 -6 -105 -122 c-57 -67 -104 -124 -104 -127 0 -5 51
-12 151 -21 l67 -5 116 144 c63 80 131 169 150 198 93 146 86 289 -18 394 -43
42 -66 56 -121 73 -67 21 -153 26 -210 12z m164 -166 c31 -16 61 -69 61 -109
0 -77 -53 -126 -134 -126 -117 0 -166 148 -75 225 36 29 102 34 148 10z"/>
</g>
</svg>
